<svg width="43" height="13.49" style="display:block" viewBox="0 0 43 13.49"><path d="M12.388 9.574a7.167 7.167 0 0 0 -0.198 -0.486 51.063 51.063 0 0 0 -0.317 -0.695l-0.008 -0.018a155.875 155.875 0 0 0 -2.984 -6.103l-0.044 -0.086a43 43 0 0 0 -0.33 -0.631 4.121 4.121 0 0 0 -0.485 -0.746A2.258 2.258 0 0 0 6.289 0a2.266 2.266 0 0 0 -1.733 0.809 4.121 4.121 0 0 0 -0.485 0.746c-0.114 0.212 -0.226 0.428 -0.333 0.637l-0.041 0.08A155.875 155.875 0 0 0 0.712 8.374l-0.013 0.03c-0.103 0.223 -0.21 0.453 -0.312 0.684 -0.067 0.152 -0.138 0.316 -0.198 0.486a2.992 2.992 0 0 0 -0.161 1.454 2.867 2.867 0 0 0 1.762 2.249 2.956 2.956 0 0 0 1.105 0.214q0.178 0 0.356 -0.022a3.628 3.628 0 0 0 1.358 -0.458c0.548 -0.308 1.089 -0.759 1.68 -1.404 0.591 0.645 1.132 1.097 1.681 1.404 0.417 0.242 0.88 0.397 1.358 0.459q0.177 0.021 0.357 0.021a2.911 2.911 0 0 0 1.105 -0.214 2.867 2.867 0 0 0 1.762 -2.249 2.992 2.992 0 0 0 -0.161 -1.454m-6.1 0.702c-0.731 -0.927 -1.201 -1.789 -1.366 -2.511a2.24 2.24 0 0 1 -0.047 -0.828 1.344 1.344 0 0 1 0.218 -0.566 1.514 1.514 0 0 1 1.195 -0.588 1.514 1.514 0 0 1 1.196 0.588c0.115 0.17 0.189 0.364 0.218 0.566a2.24 2.24 0 0 1 -0.047 0.828c-0.165 0.722 -0.634 1.583 -1.366 2.51m5.406 0.629a2.007 2.007 0 0 1 -1.233 1.572 2.105 2.105 0 0 1 -1.036 0.136 2.777 2.777 0 0 1 -1.035 -0.354c-0.487 -0.274 -0.982 -0.694 -1.537 -1.312 0.884 -1.09 1.437 -2.096 1.641 -2.991 0.092 -0.376 0.112 -0.767 0.059 -1.151a2.195 2.195 0 0 0 -0.359 -0.923A2.374 2.374 0 0 0 6.289 4.921a2.374 2.374 0 0 0 -1.907 0.961 2.195 2.195 0 0 0 -0.359 0.923c-0.053 0.383 -0.033 0.774 0.059 1.15 0.204 0.896 0.756 1.901 1.641 2.991 -0.555 0.617 -1.049 1.038 -1.536 1.312a2.777 2.777 0 0 1 -1.035 0.353 2.105 2.105 0 0 1 -1.036 -0.135 2.016 2.016 0 0 1 -1.232 -1.572 2.105 2.105 0 0 1 0.12 -1.043c0.048 -0.136 0.105 -0.269 0.175 -0.427 0.099 -0.224 0.204 -0.452 0.305 -0.671l0.013 -0.03a154.979 154.979 0 0 1 2.968 -6.069l0.041 -0.08c0.106 -0.205 0.215 -0.417 0.325 -0.623q0.159 -0.317 0.381 -0.595a1.398 1.398 0 0 1 1.671 -0.373c0.186 0.088 0.35 0.215 0.481 0.373q0.222 0.278 0.381 0.595c0.109 0.203 0.218 0.414 0.323 0.617l0.044 0.086a154.979 154.979 0 0 1 2.968 6.069l0.008 0.018c0.103 0.223 0.21 0.455 0.311 0.683 0.07 0.159 0.126 0.292 0.175 0.426a2.105 2.105 0 0 1 0.12 1.044" fill="rgb(255, 56, 92)"/></svg>